<svg xmlns="http://www.w3.org/2000/svg" xmlns:xlink="http://www.w3.org/1999/xlink" width="1780" height="408" xml:space="preserve"><defs><path id="a" d="M0 0h1780v408H0z"/></defs><clipPath id="b"><use xlink:href="#a" overflow="visible"/></clipPath><path clip-path="url(#b)" fill="#262626" d="M867.521 108.618c-35.948 0-71.379 15.433-98.428 45.775V4.765h-53.53v251.927c0 81.778 66.294 148.072 148.073 148.072 81.778 0 148.072-66.294 148.072-148.072s-62.409-148.074-144.187-148.074m-3.885 239.114c-50.281 0-91.042-40.761-91.042-91.041 0-50.281 40.761-91.042 91.042-91.042s91.042 40.761 91.042 91.042-40.761 91.041-91.042 91.041M1199.169 108.618c-35.948 0-71.379 15.433-98.429 45.775V4.765h-53.528v251.908l-.001.019c0 81.778 66.294 148.072 148.073 148.072 81.777 0 148.072-66.294 148.072-148.072s-62.41-148.074-144.187-148.074m-3.885 239.114c-50.281 0-91.042-40.761-91.042-91.041 0-50.281 40.761-91.042 91.042-91.042 50.28 0 91.041 40.761 91.041 91.042s-40.761 91.041-91.041 91.041M414.364 282.628V116.65h57.414v165.457c0 42.278 24.532 69.419 65.766 69.419 41.755 0 65.766-26.098 65.766-69.419V116.65h57.935v165.978c0 76.726-46.453 122.136-123.701 122.136-75.162 0-123.18-46.975-123.18-122.136M1389.544 4.765h57.414v393.213h-57.414zM1771.963 279.498h-219.74c8.352 43.843 39.146 73.594 93.429 73.594 31.839 0 70.462-12.005 95.517-30.272l24.01 42.276c-28.708 21.401-74.116 39.146-121.615 39.146-105.433 0-150.843-73.594-150.843-147.71 0-42.278 13.049-77.249 39.669-104.913 26.619-27.663 61.591-41.755 103.867-41.755 40.189 0 73.594 12.527 99.17 38.101 25.576 25.576 38.623 60.024 38.623 103.867a187.577 187.577 0 0 1-2.087 27.666m-219.74-46.977h163.891c-4.696-44.365-37.578-73.071-79.857-73.071-43.323 0-75.683 29.228-84.034 73.071M232.07 108.618c-35.948 0-71.379 15.433-98.429 45.775V4.765H80.112v251.927c0 81.778 66.294 148.072 148.073 148.072 81.778 0 148.073-66.294 148.073-148.072s-62.41-148.074-144.188-148.074m-3.885 239.114c-50.281 0-91.042-40.761-91.042-91.041 0-50.281 40.761-91.042 91.042-91.042 50.28 0 91.041 40.761 91.041 91.042s-40.761 91.041-91.041 91.041"/><path clip-path="url(#b)" fill="#00F" d="M41.196 331.531c-20.223 0-36.616 16.394-36.616 36.616s16.393 36.616 36.616 36.616 36.616-16.394 36.616-36.616-16.393-36.616-36.616-36.616"/></svg>